{"title":"Hard Target 2 2016 Movies BRRip XviD AAC New Source +Sample ☻rDX","uid":15656508,"size":740338106,"categoryP":"video","categoryS":"movies","magnet":"?xt=urn:btih:966b0a9ee253bd81443b9ec044d1275a7c0646e4&amp;dn=Hard+Target+2+2016+Movies+BRRip+XviD+AAC+New+Source+%2BSample+%E2%98%BBrDX&amp;tr=udp%3A%2F%2Ftracker.leechers-paradise.org%3A6969&amp;tr=udp%3A%2F%2Fzer0day.ch%3A1337&amp;tr=udp%3A%2F%2Fopen.demonii.com%3A1337&amp;tr=udp%3A%2F%2Ftracker.coppersurfer.tk%3A6969&amp;tr=udp%3A%2F%2Fexodus.desync.com%3A6969","seeders":2,"leechers":4,"uploader":"basicssom","files":2,"time":1472141174,"description":"----------------------------------------------------------------\r\nHard Target 2 2016 English Movies BRRip XviD AAC New Source with Sample ☻rDX☻\r\n\r\nSCREEN SHOTS &amp; POSTER:\r\n  \nhttp://postimage.co.nr/2016/8/diner/index.htm  \nhttp://postimage.co.nr/2016/8/diner/1.html  \nhttp://postimage.co.nr/2016/8/diner/2.html  \nhttp://postimage.co.nr/2016/8/diner/3.html  \nhttp://postimage.co.nr/2016/8/diner/4.html  \nhttp://postimage.co.nr/2016/8/diner/5.html  \nhttp://postimage.co.nr/2016/8/diner/6.html  \nhttp://postimage.co.nr/2016/8/diner/7.html  \nhttp://postimage.co.nr/2016/8/diner/8.html  \nhttp://postimage.co.nr/2016/8/diner/9.html  \nhttp://postimage.co.nr/2016/8/diner/10.html\r\n\r\nFormat                                   : Matroska\r\nFormat version                           : Version 4 / Version 2\r\nFile size                                : 692 MiB\r\nDuration                                 : 1 h 43 min\r\nOverall bit rate                         : 935 kb/s\r\nMovie name                               : Hard Target 2 2016 English Movies BRRip XviD AAC New Source ☻rDX☻\r\n\r\nVideo\r\nID                                       : 1\r\nFormat                                   : MPEG-4 Visual\r\nFormat profile                           : Advanced   \r\nFormat settings, BVOP                    : 2\r\nFormat settings, QPel                    : No\r\nFormat settings, GMC                     : No warppoints\r\nFormat settings, Matrix                  : Default (H.263)\r\nMuxing mode                              : Packed bitstream\r\nCodec ID                                 : V_MS/VFW/FOURCC / XVID\r\nCodec ID/Hint                            : XviD\r\nDuration                                 : 1 h 43 min\r\nBit rate                                 : 804 kb/s\r\nWidth                                    : 640 pixels\r\nHeight                                   : 352 pixels\r\nDisplay aspect ratio                     : 16:9\r\nFrame rate mode                          : Constant\r\nFrame rate                               : 23.976 (24000/1001) FPS\r\nColor space                              : YUV\r\nChroma subsampling                       : 4:2:0\r\nBit depth                                : 8 bits\r\nScan type                                : Progressive\r\nCompression mode                         : Lossy\r\nBits/(Pixel*Frame)                       : 0.149\r\nStream size                              : 596 MiB (86%)\r\nTitle                                    : ☻rDX☻\r\nWriting library                          : XviD 64\r\nDefault                                  : Yes\r\nForced                                   : No\r\n\r\nAudio\r\nID                                       : 2\r\nFormat                                   : MPEG Audio\r\nFormat version                           : Version 1\r\nFormat profile                           : Layer 3\r\nMode                                     : Joint stereo\r\nMode extension                           : MS Stereo\r\nCodec ID                                 : A_MPEG/L3\r\nCodec ID/Hint                            : MP3\r\nDuration                                 : 1 h 43 min\r\nBit rate mode                            : Constant\r\nBit rate                                 : 112 kb/s\r\nChannel(s)                               : 2 channels\r\nSampling rate                            : 48.0 kHz\r\nCompression mode                         : Lossy\r\nStream size                              : 83.0 MiB (12%)\r\nTitle                                    : ☻rDX☻\r\nWriting library                          : LAME3.99r\r\nEncoding settings                        : -m j -V 4 -q 3 -lowpass 15.6 -b 112\r\nDefault                                  : Yes\r\nForced                                   : No\r\n\r\nIMDB \nhttp://www.imdb.com/title/tt5241578/","torrent":{"xt":"urn:btih:966b0a9ee253bd81443b9ec044d1275a7c0646e4","amp;dn":"Hard+Target+2+2016+Movies+BRRip+XviD+AAC+New+Source+%2BSample+%E2%98%BBrDX","amp;tr":["udp%3A%2F%2Ftracker.leechers-paradise.org%3A6969","udp%3A%2F%2Fzer0day.ch%3A1337","udp%3A%2F%2Fopen.demonii.com%3A1337","udp%3A%2F%2Ftracker.coppersurfer.tk%3A6969","udp%3A%2F%2Fexodus.desync.com%3A6969"],"infoHash":"966b0a9ee253bd81443b9ec044d1275a7c0646e4","infoHashBuffer":{"type":"Buffer","data":[150,107,10,158,226,83,189,129,68,59,158,192,68,209,39,90,124,6,70,228]},"announce":[],"urlList":[]}}